{"scene":0,"scenes":[{"nodes":[0]}],"asset":{"version":"2.0","generator":"https://github.com/mikedh/trimesh"},"accessors":[{"componentType":5125,"type":"SCALAR","bufferView":0,"count":768,"max":[129],"min":[0]},{"componentType":5126,"type":"VEC3","byteOffset":0,"bufferView":1,"count":130,"max":[0.004999999888241291,0.004999999888241291,0.0010000000474974513],"min":[-0.004999999888241291,-0.004999999888241291,-0.0010000000474974513]},{"componentType":5121,"normalized":true,"type":"VEC4","byteOffset":0,"bufferView":2,"count":130,"max":[255,0,0,255],"min":[255,0,0,255]}],"meshes":[{"name":"geometry_0","extras":{"shape":"cylinder","height":0.002,"radius":0.005,"processed":true},"primitives":[{"attributes":{"POSITION":1,"COLOR_0":2},"indices":0,"mode":4}]}],"nodes":[{"name":"world","children":[1]},{"name":"geometry_0","mesh":0}],"buffers":[{"uri":"gltf_buffer_0.bin","byteLength":3072},{"uri":"gltf_buffer_1.bin","byteLength":1560},{"uri":"gltf_buffer_2.bin","byteLength":520}],"bufferViews":[{"buffer":0,"byteOffset":0,"byteLength":3072},{"buffer":1,"byteOffset":0,"byteLength":1560},{"buffer":2,"byteOffset":0,"byteLength":520}]}